<svg xmlns="http://www.w3.org/2000/svg" width="32" height="33" viewBox="0 0 32 33" fill="none">
<path d="M7.11111 2.80322C4.33778 2.80322 2.66667 4.47433 2.66667 7.24766V25.5588C2.66667 28.3321 4.33778 29.8032 7.11111 29.8032H25.4222C28.1956 29.8032 29.8667 28.3321 29.8667 25.5588V7.24766C29.8667 4.47433 28.1956 2.80322 25.4222 2.80322H7.11111ZM7.11111 5.46989H25.4222C26.7111 5.46989 27.2 6.15877 27.2 7.24766V25.5588C27.2 26.6477 26.7111 27.1366 25.4222 27.1366H7.11111C6.02222 27.1366 5.33333 26.6477 5.33333 25.5588V7.24766C5.33333 6.15877 6.02222 5.46989 7.11111 5.46989ZM9.77778 8.13656C8.68889 8.13656 7.8 9.02544 7.8 10.1143C7.8 11.2032 8.68889 12.0921 9.77778 12.0921C10.8667 12.0921 11.7556 11.2032 11.7556 10.1143C11.7556 9.02544 10.8667 8.13656 9.77778 8.13656ZM21.3333 13.4699C19.5556 13.4699 18.4667 14.3588 17.7778 15.2477V13.8032H14.2222V24.1366H17.7778V19.2477C17.7778 17.6699 18.6667 16.5810 20.2444 16.5810C21.8222 16.5810 22.7111 17.6699 22.7111 19.2477V24.1366H26.2667V18.5588C26.2667 15.4699 24.4222 13.4699 21.3333 13.4699ZM8.44444 13.8032V24.1366H11.1111V13.8032H8.44444Z" fill="#FA6F40"/>
</svg>
